<?xml version="1.0" standalone="no"?>
<!DOCTYPE svg PUBLIC "-//W3C//DTD SVG 20010904//EN"
 "http://www.w3.org/TR/2001/REC-SVG-20010904/DTD/svg10.dtd">
<svg version="1.0" xmlns="http://www.w3.org/2000/svg"
 width="960.000000pt" height="960.000000pt" viewBox="0 0 960.000000 960.000000"
 preserveAspectRatio="xMidYMid meet">
<metadata>
Created by potrace 1.15, written by Peter Selinger 2001-2017
</metadata>
<g transform="translate(0.000000,960.000000) scale(0.100000,-0.100000)"
fill="#000000" stroke="none">
<path d="M0 4800 l0 -4800 2033 2 2032 3 3 24 c2 13 17 37 33 53 l29 29 25
-19 c25 -20 25 -21 5 -27 -11 -3 -20 -12 -20 -20 0 -7 -3 -20 -6 -29 -6 -15
157 -16 1801 -16 1441 0 1806 3 1802 13 -2 6 0 20 5 30 7 15 12 16 24 6 8 -6
14 -20 14 -30 0 -18 26 -19 910 -19 l910 0 0 4800 0 4800 -4800 0 -4800 0 0
-4800z m7497 4698 c34 -12 41 -22 23 -33 -7 -4 -7 -12 0 -25 15 -28 13 -30
-21 -28 -35 3 -56 -19 -46 -46 4 -11 19 -16 47 -16 27 0 43 -5 47 -15 7 -21 3
-24 -38 -30 -20 -2 -47 3 -65 12 -33 17 -64 12 -64 -10 0 -7 16 -32 36 -55 39
-46 85 -57 103 -24 9 15 10 15 16 1 5 -13 16 -15 55 -11 40 4 50 1 59 -16 6
-10 7 -22 3 -26 -11 -12 21 -26 61 -26 41 0 45 -9 21 -45 -21 -32 -13 -41 41
-49 48 -8 61 -31 30 -56 -20 -17 -3 -46 32 -55 20 -5 31 -2 40 11 10 14 15 15
28 4 8 -7 15 -19 15 -26 0 -8 10 -14 25 -14 14 0 25 5 25 10 0 6 -4 10 -9 10
-5 0 -11 6 -14 14 -4 9 5 14 31 15 118 6 117 7 117 -11 0 -10 -4 -18 -10 -19
-5 0 -17 -6 -25 -14 -8 -7 -30 -20 -48 -29 -45 -23 -39 -49 13 -57 40 -5 40
-5 14 -16 -33 -14 -40 -40 -22 -85 17 -43 66 -61 136 -52 27 4 59 2 79 -6 47
-17 507 -25 490 -8 -7 7 -83 18 -182 27 -93 8 -170 18 -170 22 0 11 84 22 127
16 21 -2 81 -12 133 -21 52 -10 118 -16 145 -14 58 3 374 -10 423 -18 23 -4
32 -10 32 -24 0 -15 -7 -20 -27 -21 l-28 -1 25 -7 c19 -5 25 -14 26 -38 1 -39
11 -66 23 -59 4 3 14 33 22 66 12 56 15 61 39 58 23 -3 24 -6 21 -48 -1 -25
-9 -52 -17 -61 -12 -13 -12 -18 -3 -21 16 -5 24 -268 8 -268 -6 0 -9 32 -8 85
1 46 -3 90 -8 97 -6 7 -14 28 -18 46 -13 60 -28 31 -42 -78 -4 -32 -4 -67 -3
-265 1 -77 -8 -137 -21 -146 -9 -5 7 -114 21 -138 4 -8 0 -27 -12 -47 -18 -30
-18 -33 -2 -42 15 -8 15 -12 3 -29 -14 -20 -18 -22 -41 -24 -10 0 -10 -2 0 -6
23 -9 12 -23 -14 -17 -29 7 -47 -10 -39 -37 3 -9 -2 -22 -11 -30 -14 -11 -21
-11 -46 4 -26 15 -33 15 -56 3 -42 -23 -65 -29 -97 -27 l-30 1 33 -14 c55 -25
34 -55 -38 -56 -34 0 -71 -27 -63 -46 7 -18 -27 -46 -42 -34 -6 5 -17 5 -25 0
-7 -4 -24 -4 -37 1 -30 11 -84 0 -100 -20 -11 -14 -12 -14 -13 2 0 9 -5 17
-10 17 -6 0 -10 -7 -8 -16 2 -10 -3 -19 -9 -21 -7 -3 -13 2 -13 10 0 12 -8 13
-42 5 -59 -13 -89 -11 -108 7 -9 8 -35 15 -58 15 -42 0 -54 12 -27 27 12 7 11
10 -5 21 -17 11 -20 8 -28 -21 l-9 -32 -11 26 c-9 21 -17 26 -53 27 -24 1 -45
6 -48 10 -20 28 -141 43 -141 17 0 -8 8 -16 18 -16 9 -1 24 -2 32 -3 23 -2 40
-15 40 -32 0 -12 -8 -14 -37 -9 -49 8 -190 8 -225 -1 -16 -3 -28 -2 -28 2 0
14 51 34 86 34 37 0 47 9 34 30 -13 22 -125 17 -150 -5 -11 -10 -26 -15 -35
-12 -8 4 -15 2 -15 -4 0 -6 -5 -7 -10 -4 -6 3 -13 -1 -16 -10 -4 -9 -13 -14
-20 -11 -7 3 -45 -13 -85 -34 -39 -22 -77 -40 -84 -40 -7 0 -15 -10 -19 -23
-8 -35 -99 -64 -116 -37 -6 10 -95 -3 -112 -17 -21 -16 -60 -23 -79 -13 -12 7
-19 5 -23 -5 -5 -13 -24 -14 -128 -8 -179 11 -382 9 -466 -6 -65 -12 -73 -15
-80 -39 -9 -36 -9 -235 1 -402 7 -113 6 -142 -7 -179 -9 -24 -16 -65 -16 -92
0 -72 -30 -102 -103 -103 -30 -1 -57 -3 -60 -6 -3 -3 -7 -53 -11 -112 -3 -59
-10 -117 -15 -130 -4 -13 -11 -52 -15 -88 -4 -36 -14 -90 -23 -120 -8 -30 -18
-74 -23 -98 -4 -24 -12 -48 -18 -54 -7 -7 -12 -20 -12 -29 0 -10 -8 -24 -18
-31 -10 -7 -23 -21 -29 -32 -9 -16 -11 -16 -16 -2 -4 9 0 21 7 28 9 9 10 16 2
24 -14 15 -33 -4 -42 -42 -4 -16 -15 -39 -26 -50 -17 -19 -17 -22 -3 -28 16
-6 54 10 67 29 8 10 12 -7 8 -35 -2 -20 -29 -40 -45 -34 -7 3 -16 1 -20 -5 -3
-6 -2 -11 4 -11 6 0 15 -9 21 -21 9 -16 8 -25 -5 -40 -11 -11 -15 -27 -12 -40
3 -12 0 -48 -7 -79 -9 -38 -10 -63 -4 -74 6 -10 8 -29 5 -42 -2 -14 0 -27 4
-30 5 -3 6 -17 3 -31 -6 -23 -5 -25 12 -19 10 5 24 9 31 10 7 1 16 5 19 9 4 4
29 7 55 7 25 0 70 8 98 17 l52 16 -3 63 c-2 34 -6 60 -10 57 -5 -2 -8 8 -8 22
0 18 6 29 19 32 11 3 18 10 17 16 -2 7 -1 9 1 5 3 -4 21 -12 42 -18 38 -10 38
-10 35 -59 -2 -47 -1 -50 28 -60 17 -6 43 -11 57 -11 26 0 65 -33 54 -44 -4
-3 -17 -6 -30 -6 -12 0 -23 -4 -23 -10 0 -5 23 -10 50 -10 28 0 50 -4 50 -9 0
-23 -32 -81 -45 -81 -8 0 -15 3 -15 8 0 4 -4 14 -10 22 -7 12 -12 11 -30 -5
-12 -11 -29 -20 -38 -20 -9 0 -18 -9 -20 -20 -6 -26 -23 -37 -40 -23 -10 9
-16 8 -23 -3 -5 -8 -9 -19 -9 -24 0 -6 -13 -19 -30 -28 -16 -10 -30 -15 -30
-11 0 5 -5 3 -11 -3 -18 -18 -1 -35 22 -23 24 14 24 5 -2 -31 l-20 -29 -30 22
c-34 26 -36 34 -9 43 19 6 19 8 5 36 -13 25 -21 29 -55 29 -37 0 -91 27 -131
65 -22 21 -36 19 -42 -8 -11 -40 -2 -219 23 -454 22 -213 23 -244 12 -375 -11
-132 -29 -229 -52 -269 -11 -20 -24 -128 -22 -184 1 -22 6 -78 11 -125 5 -47
10 -108 10 -137 l1 -52 -84 -71 c-60 -50 -114 -85 -191 -121 -182 -85 -269
-94 -538 -59 -138 18 -250 44 -322 75 -77 33 -183 87 -210 108 -16 12 -57 42
-90 67 -62 46 -199 180 -250 245 -105 133 -164 226 -157 248 1 5 -3 15 -9 23
-13 16 4 44 26 44 8 0 15 5 17 10 2 6 20 11 41 12 26 1 41 7 48 20 11 20 30
25 26 6 -1 -6 12 -12 32 -12 44 -1 55 -26 12 -26 -17 0 -31 -5 -31 -10 0 -6
10 -10 23 -9 40 4 58 -1 56 -13 -3 -26 1 -38 14 -38 7 0 21 -9 30 -21 10 -11
21 -18 25 -14 3 3 0 10 -8 16 -13 8 -13 11 1 22 8 6 18 20 22 30 4 12 17 17
41 17 24 0 34 4 31 13 -11 28 13 40 82 42 70 2 103 -12 103 -42 0 -8 13 -22
30 -31 16 -9 30 -20 30 -24 0 -12 38 -10 45 2 3 5 -2 10 -12 10 -12 1 -8 5 12
15 17 7 24 14 16 14 -8 1 -11 7 -7 17 4 10 -1 22 -11 29 -15 11 -9 14 42 20
68 7 129 24 121 33 -9 8 25 43 35 36 5 -3 9 0 9 5 0 6 22 11 51 11 36 0 49 4
46 13 -2 6 8 17 22 24 19 8 21 12 9 12 -20 1 -24 16 -8 26 17 10 11 21 -17 34
l-28 13 23 15 c23 16 29 38 12 48 -6 4 -16 2 -23 -3 -7 -5 -29 -12 -50 -16
-28 -5 -42 -3 -54 10 -16 16 -15 18 11 39 16 13 56 28 90 35 79 16 155 40 162
51 3 5 12 9 21 9 18 0 73 38 73 50 0 20 -40 20 -59 1 -24 -24 -34 -25 -63 -10
-14 8 -23 8 -31 0 -7 -7 -14 -7 -24 0 -9 8 -13 8 -13 0 0 -6 -8 -11 -17 -11
-10 0 -27 -7 -37 -15 -11 -8 -27 -15 -37 -15 -9 0 -27 -8 -40 -18 -33 -25 -80
-27 -106 -5 -11 10 -24 37 -28 60 -4 24 -11 45 -16 49 -15 9 10 45 44 60 22
10 25 14 9 10 -15 -3 -22 0 -19 7 2 7 14 12 26 12 12 0 25 6 30 14 11 18 140
28 150 12 11 -17 79 16 87 42 4 14 8 16 14 7 10 -17 70 -23 87 -9 7 6 13 22
13 36 0 13 4 22 9 18 5 -3 26 2 45 12 34 16 38 16 71 0 44 -21 64 -21 71 -3 3
9 18 14 35 14 19 -1 40 8 57 24 15 14 33 23 40 21 11 -4 17 9 13 30 -1 4 13
13 30 19 25 9 30 15 26 34 -2 14 1 25 9 28 8 3 14 13 14 21 0 12 -6 15 -20 10
-22 -7 -28 10 -7 19 10 5 10 7 0 12 -15 7 -17 44 -3 44 6 0 10 6 10 14 0 15
-64 31 -81 20 -6 -3 -13 3 -16 15 -6 25 -16 27 -33 6 -7 -9 -19 -14 -27 -11
-7 3 -29 -4 -48 -15 -19 -12 -35 -17 -35 -12 0 17 31 53 41 47 11 -6 48 34 49
54 0 18 -11 15 -54 -18 -40 -30 -76 -39 -76 -20 0 16 50 60 75 66 13 3 28 17
36 30 7 15 25 28 41 31 16 3 31 10 34 15 3 5 13 3 22 -6 19 -16 72 -11 72 7 0
6 7 2 15 -9 8 -10 15 -14 16 -9 1 6 2 17 3 25 2 8 3 25 4 38 1 12 8 22 16 22
8 0 17 9 21 20 4 11 20 23 38 28 31 8 32 10 32 60 -1 29 3 52 7 52 4 0 8 11 8
25 l0 25 -46 -22 c-25 -13 -40 -24 -34 -26 6 -2 -1 -13 -14 -23 -23 -18 -27
-19 -49 -4 -23 14 -25 14 -31 0 -3 -9 -6 -24 -6 -34 0 -27 -39 -101 -53 -101
-7 0 -18 -9 -25 -20 -7 -11 -19 -20 -27 -20 -7 0 -20 -12 -27 -27 -9 -19 -40
-40 -98 -70 -115 -58 -141 -62 -177 -29 -22 21 -38 26 -78 26 -28 0 -55 4 -61
10 -5 5 -42 14 -82 20 -58 8 -77 7 -95 -4 -17 -11 -39 -12 -96 -5 -41 4 -78
12 -84 18 -5 5 -16 7 -24 4 -9 -3 -16 2 -19 14 -6 23 -69 29 -78 7 -7 -19 -46
-18 -46 1 0 9 7 18 15 21 21 9 19 27 -3 20 -11 -4 -22 2 -30 14 -9 15 -9 20 0
20 6 0 -3 13 -22 30 -18 16 -31 33 -27 36 8 9 -41 94 -67 117 -15 13 -17 20
-8 24 6 2 12 11 12 19 0 8 7 14 15 14 8 0 15 4 15 9 0 5 9 13 20 16 11 3 20
13 20 21 0 17 -26 19 -36 3 -4 -8 -9 -7 -15 2 -6 11 -13 9 -32 -9 -13 -12 -29
-22 -35 -22 -7 0 -12 -11 -12 -24 0 -19 -6 -24 -36 -29 -46 -8 -76 7 -74 36 3
35 -10 65 -31 70 -11 3 -19 14 -19 25 0 12 -5 24 -11 28 -8 5 -8 9 1 14 21 13
-15 67 -55 80 -19 6 -35 13 -35 15 0 2 5 28 11 56 10 44 9 54 -3 63 -8 6 -20
21 -27 34 -10 20 -10 27 3 41 9 10 16 25 16 33 0 9 4 18 10 20 5 2 11 22 12
44 2 31 7 40 17 36 9 -3 12 0 9 9 -3 8 -13 13 -22 13 -9 -1 -16 6 -16 17 0 10
-7 22 -16 27 -11 6 -13 11 -5 16 15 10 3 56 -20 78 -26 26 -89 123 -89 138 0
8 -8 32 -18 54 -25 57 -62 168 -62 187 0 9 21 34 46 54 46 38 52 40 139 31 42
-4 79 9 70 24 -8 12 28 30 62 30 15 1 51 14 78 30 28 16 60 34 73 40 34 15 26
28 -18 28 -44 1 -63 9 -55 23 4 5 0 9 -7 9 -10 0 -10 2 1 9 7 5 10 14 7 20 -5
7 2 11 16 11 32 0 86 35 100 65 13 29 34 32 60 8 12 -11 44 -19 91 -22 71 -6
72 -6 75 -36 5 -40 -15 -130 -40 -178 -11 -23 -21 -68 -24 -110 -7 -101 -22
-153 -64 -222 -20 -33 -48 -85 -62 -115 -32 -68 -70 -232 -76 -322 l-4 -68 31
0 c17 0 33 0 36 0 3 0 19 -7 36 -15 24 -13 29 -20 23 -38 -8 -25 -35 -63 -47
-65 -4 0 -25 -11 -47 -23 -30 -17 -37 -26 -30 -38 7 -13 24 -16 89 -15 71 2
81 0 86 -17 8 -25 62 -79 90 -89 14 -5 36 -4 59 4 55 19 60 29 31 60 -14 15
-25 31 -25 35 0 5 -13 14 -30 21 -28 12 -42 40 -20 40 6 0 10 6 10 14 0 15 28
21 274 56 169 24 371 27 442 5 63 -19 94 -19 94 0 0 18 -52 46 -94 50 -17 2
-83 6 -146 10 -99 6 -128 4 -205 -15 -98 -24 -124 -22 -214 10 -57 21 -60 24
-66 62 -6 33 -4 42 13 53 10 8 25 28 32 45 7 16 17 30 23 30 16 0 169 160 187
194 13 28 21 32 78 39 39 6 79 5 103 -1 34 -9 41 -7 49 8 6 10 10 32 10 47 0
24 -7 33 -35 46 -54 26 -69 22 -133 -37 -54 -51 -62 -55 -100 -51 -22 2 -50 9
-61 15 -12 6 -27 10 -34 9 -39 -7 -117 78 -117 128 0 12 -7 26 -17 31 -11 7
-18 27 -21 65 -4 51 -2 58 26 85 17 16 35 31 41 33 14 5 15 96 3 264 -7 103
-6 134 5 151 11 18 10 27 -12 72 -14 29 -25 58 -25 66 0 8 -10 32 -23 55 -23
40 -37 44 -37 11 0 -9 -7 -31 -16 -48 -18 -37 -46 -41 -84 -15 -20 14 -42 17
-105 15 -211 -8 -232 -7 -249 7 -10 8 -25 16 -34 17 -10 2 -39 6 -67 11 l-49
8 -2 66 c0 36 -5 72 -9 79 -4 7 -9 23 -11 36 -1 12 -9 47 -18 78 -13 43 -21
56 -36 56 -16 0 -19 5 -13 30 4 21 1 36 -10 48 -40 44 -40 122 0 122 16 0 16
-2 3 -11 -12 -9 -12 -10 3 -5 10 3 22 6 25 6 4 0 7 13 8 28 1 25 -2 28 -23 24
-14 -3 -47 6 -76 19 -88 41 -104 64 -70 101 16 18 16 18 0 12 -22 -8 -22 2 2
27 l19 21 21 -21 c23 -23 48 -19 69 11 7 10 17 18 22 18 8 0 53 35 95 75 22
21 69 38 220 78 44 11 82 25 83 29 2 4 14 8 27 8 13 0 26 4 30 9 10 17 98 56
102 46 3 -10 85 -9 113 2 8 3 27 7 41 9 14 2 39 10 55 19 16 8 53 15 83 15 34
0 61 6 71 15 8 8 35 17 59 20 25 3 49 9 55 14 6 4 35 7 64 6 44 -3 52 0 50 13
-4 24 40 28 56 6 11 -14 18 -15 46 -6 18 7 36 9 41 7 14 -9 79 23 86 42 12 34
24 44 39 32 8 -6 23 -9 34 -6 11 3 39 1 62 -5 24 -5 56 -11 71 -12 16 -1 32
-8 36 -15 4 -6 12 -11 17 -9 16 5 64 -34 64 -52 0 -10 27 -45 60 -79 56 -58
63 -62 93 -56 18 4 40 14 49 22 20 18 33 11 53 -26 8 -16 32 -38 54 -49 l39
-21 -2 32 c-2 18 -4 37 -5 44 0 6 -9 13 -18 15 -9 2 -17 13 -18 25 -1 16 5 23
27 27 16 3 37 2 46 -3 9 -5 29 -14 45 -22 31 -14 35 -26 10 -31 -13 -3 -7 -9
21 -21 21 -9 44 -17 52 -17 7 0 29 -9 48 -21 30 -18 34 -24 26 -40 -8 -13 -21
-19 -45 -19 -23 0 -35 -5 -35 -14 0 -8 8 -13 18 -12 12 1 17 -6 17 -24 0 -24
-2 -25 -65 -24 -36 1 -59 0 -52 -3 6 -3 12 -11 12 -18 0 -8 9 -19 21 -26 18
-9 20 -16 14 -56 -6 -43 -5 -45 14 -40 28 7 31 -2 21 -49 -6 -24 -6 -40 0 -42
13 -5 13 -32 1 -32 -6 0 -13 5 -17 11 -4 8 -10 7 -18 -1 -8 -9 -8 -14 2 -17 6
-3 12 -12 12 -21 0 -12 -3 -13 -12 -4 -17 17 -33 15 -18 -3 7 -8 21 -15 31
-15 11 0 19 -7 19 -15 0 -9 9 -15 22 -15 17 0 19 -3 10 -12 -22 -22 -11 -102
14 -98 5 0 10 -6 12 -14 2 -9 -3 -16 -12 -16 -20 0 -20 -13 -1 -50 13 -25 13
-36 3 -70 -15 -46 -33 -54 -24 -10 3 19 1 30 -6 30 -6 0 -8 -3 -5 -7 4 -3 2
-12 -3 -18 -13 -16 -90 3 -90 22 0 7 -11 13 -25 13 -14 0 -25 -2 -25 -5 0 -18
34 -85 44 -85 6 0 4 -5 -4 -10 -13 -8 -13 -13 3 -39 21 -36 22 -71 2 -71 -8 0
-15 7 -15 15 0 27 -1 30 -22 52 -12 13 -30 21 -42 19 -18 -2 -21 -11 -24 -53
-3 -57 11 -103 33 -103 8 0 15 -5 15 -11 0 -5 -4 -8 -9 -5 -12 8 -22 -20 -15
-39 5 -12 10 -13 20 -4 8 6 14 8 14 5 0 -4 12 5 26 21 l25 27 -7 -54 c-7 -57
-20 -84 -35 -74 -11 6 -10 16 -13 -134 -3 -127 4 -152 39 -138 10 4 15 -1 15
-14 0 -13 5 -18 15 -14 8 4 15 12 15 19 0 7 12 37 28 67 15 30 32 65 38 79 6
13 25 49 42 79 22 40 32 75 38 128 4 47 3 72 -4 72 -19 0 -24 52 -7 69 14 14
17 14 25 1 9 -13 11 -13 20 0 16 24 12 33 -14 26 -17 -4 -26 -1 -31 11 -3 10
-1 19 4 21 16 5 13 41 -4 58 -17 17 -20 60 -6 69 11 6 51 -42 51 -61 0 -8 5
-14 10 -14 6 0 10 7 10 15 0 8 5 15 10 15 7 0 9 13 5 33 -5 23 -2 37 8 46 9 6
13 21 10 32 -3 11 0 31 7 43 10 19 9 29 -4 55 -10 18 -14 41 -10 55 4 17 -2
36 -20 63 -31 45 -32 55 -6 78 28 25 25 32 -16 45 -42 14 -43 40 -2 54 21 8
32 6 46 -7 11 -10 33 -22 51 -27 l31 -9 0 74 c0 49 -4 75 -12 78 -8 3 -6 6 5
6 22 1 22 10 0 27 -16 11 -16 13 10 19 25 7 39 25 18 25 -5 0 -12 12 -16 27
-4 16 -22 47 -41 70 -19 23 -34 45 -34 48 0 4 -16 25 -35 46 -30 34 -33 42
-23 59 10 16 9 23 -9 42 -11 13 -18 29 -16 36 3 6 -8 29 -24 50 -16 20 -30 48
-31 61 -2 40 -25 53 -108 61 -44 4 -69 8 -57 9 29 1 36 16 21 40 -9 15 -19 19
-38 14 -14 -3 -27 -9 -30 -13 -11 -15 -43 -19 -63 -9 -21 12 -21 12 -1 28 14
12 18 23 14 41 -4 14 -12 24 -18 23 -7 -2 -12 8 -12 22 0 23 -2 24 -50 18 -43
-5 -50 -3 -50 11 0 19 -71 55 -108 56 -15 0 -26 7 -29 19 -7 27 -98 93 -151
111 -43 13 -81 10 -169 -16 -15 -4 -27 0 -39 15 -10 12 -28 21 -40 21 -18 0
-24 -8 -29 -42 -9 -51 -30 -71 -57 -54 -11 7 -18 23 -18 43 0 42 -30 73 -71
73 -19 0 -28 -4 -23 -11 8 -14 -13 -29 -41 -29 -11 0 -37 13 -56 30 -20 16
-49 31 -65 34 -90 15 -338 5 -569 -23 -68 -8 -178 -38 -300 -80 -124 -43 -214
-71 -230 -71 -28 0 -83 -35 -128 -81 -21 -22 -43 -39 -49 -39 -12 0 -116 -104
-168 -169 -19 -24 -58 -89 -86 -144 -44 -86 -53 -111 -58 -178 -6 -59 -12 -81
-28 -95 -21 -20 -88 -152 -88 -175 0 -7 -7 -20 -16 -30 -10 -11 -16 -36 -16
-64 0 -26 -8 -72 -19 -102 -10 -30 -25 -94 -34 -140 -8 -47 -20 -92 -27 -100
-8 -10 -12 -63 -13 -166 -1 -154 4 -182 48 -286 11 -25 12 -44 5 -78 -8 -36
-7 -48 6 -62 9 -10 16 -27 16 -38 0 -14 9 -23 26 -27 20 -5 25 -12 21 -26 -3
-11 2 -41 10 -67 9 -30 12 -67 9 -98 -4 -34 -1 -58 7 -70 7 -11 14 -43 15 -72
2 -64 -16 -79 -76 -64 -20 5 -44 9 -52 9 -8 0 -37 3 -63 6 -27 3 -46 2 -43 -3
3 -5 -1 -11 -8 -14 -8 -3 -17 -1 -19 6 -3 9 -8 8 -20 -2 -15 -11 -17 -11 -17
2 0 37 -111 45 -145 10 -24 -23 -17 -37 10 -19 34 22 75 21 75 -2 0 -26 -9
-33 -30 -20 -14 9 -24 6 -49 -11 -30 -22 -39 -23 -129 -17 -53 3 -101 6 -107
7 -27 2 -153 -3 -172 -8 -18 -4 -23 -12 -23 -39 0 -19 -4 -34 -10 -34 -5 0
-10 9 -10 19 0 23 -16 36 -25 21 -3 -5 -14 -10 -23 -10 -15 0 -15 2 -2 10 22
14 2 28 -45 32 -27 2 -40 8 -40 18 0 9 16 18 40 23 89 19 83 21 -120 46 -101
12 -187 40 -193 64 -5 19 -27 23 -37 7 -3 -5 -16 -10 -28 -11 -17 -1 -15 -3 9
-10 43 -12 61 -34 44 -54 -14 -17 -50 -20 -50 -5 0 6 -9 10 -20 10 -15 0 -20
7 -20 29 0 25 -3 28 -32 27 -18 -1 -40 -7 -48 -14 -8 -7 -19 -12 -23 -11 -5 0
-14 -7 -21 -17 -10 -13 -30 -17 -82 -19 -39 -1 -79 -7 -89 -12 -29 -15 -43 -6
-37 23 4 21 1 25 -14 22 -14 -3 -19 -12 -17 -37 1 -24 -2 -30 -10 -22 -14 14
-47 14 -47 1 0 -6 -12 -10 -27 -10 -16 0 -63 -2 -106 -4 -53 -3 -75 -1 -70 6
4 8 -5 9 -28 5 -19 -3 -28 -3 -21 0 20 8 14 22 -9 16 -15 -4 -22 0 -26 16 -4
15 -12 21 -23 18 -13 -3 -16 1 -13 17 4 20 -3 23 -89 40 -51 10 -98 25 -105
33 -7 9 -17 12 -25 7 -7 -5 -24 -9 -38 -10 -30 -1 -137 24 -165 39 -11 6 -25
10 -32 9 -6 -1 -14 2 -18 7 -3 6 -12 8 -20 4 -8 -3 -15 -1 -15 5 0 5 -21 15
-48 22 -26 7 -51 17 -56 21 -6 5 -17 9 -26 9 -9 0 -26 9 -39 21 -24 23 -35 21
-25 -4 3 -8 23 -23 45 -31 39 -16 39 -16 23 -41 -9 -14 -17 -36 -18 -48 -1
-21 -4 -22 -131 -23 -72 -1 -140 -2 -152 -3 -31 -1 -29 -21 1 -21 13 0 26 -7
30 -15 7 -18 -4 -19 -55 -4 -25 8 -36 16 -32 25 7 19 -21 18 -37 -1 -10 -12
-10 -15 1 -15 11 0 11 -2 -1 -10 -9 -6 -17 -5 -21 2 -4 6 -16 8 -28 5 -19 -5
-21 -1 -21 43 0 47 12 71 25 50 3 -5 27 -10 53 -10 42 0 45 1 27 14 -11 7 -37
19 -58 25 -43 14 -60 40 -51 76 3 14 2 25 -2 25 -5 0 -10 42 -11 93 -1 50 -5
115 -8 142 -6 48 -15 233 -30 630 -4 99 -13 212 -20 250 -8 40 -16 186 -20
340 -4 149 -11 286 -15 305 -9 36 -17 376 -9 384 5 5 266 11 389 9 47 -1 254
-3 460 -3 382 -1 414 -2 440 -13 32 -12 89 -2 110 21 23 24 26 25 96 15 42 -6
45 -8 24 -14 -14 -4 -45 -7 -70 -8 -41 -1 -43 -2 -25 -15 13 -9 48 -14 98 -14
66 0 77 3 75 17 -3 13 7 16 55 16 45 0 61 4 68 18 8 14 22 17 67 15 31 -1 62
-5 67 -9 6 -4 35 -9 65 -12 71 -7 96 -12 150 -30 45 -14 120 -12 120 4 0 17
-44 31 -96 30 -30 0 -54 4 -54 9 0 11 79 12 192 2 43 -4 86 -5 95 -1 10 3 131
9 268 13 613 15 919 26 1030 36 66 6 305 15 530 20 226 5 473 15 550 20 77 6
264 15 415 21 255 9 359 14 735 39 77 5 237 13 355 19 118 5 256 13 305 16 50
3 178 10 285 16 107 6 247 14 310 18 179 12 211 12 247 -1z m-1109 -740 c30
-12 43 -28 22 -28 -5 0 -10 -7 -10 -15 0 -16 63 -37 86 -28 8 3 14 1 14 -4 0
-9 -28 -26 -62 -37 -10 -3 -18 -13 -18 -22 0 -11 -5 -14 -17 -9 -21 8 -40 12
-103 21 -60 8 -88 23 -69 35 11 7 9 13 -11 29 l-25 20 22 6 c19 5 20 8 8 20
-7 8 -19 14 -25 14 -6 0 -8 5 -4 11 9 15 146 6 192 -13z m-2562 -845 c4 -32 8
-60 8 -63 1 -3 7 -23 14 -45 12 -35 11 -45 -4 -80 -10 -22 -17 -43 -16 -46 0
-4 -9 -16 -22 -28 -28 -26 -64 -17 -83 20 -20 39 -19 51 3 175 6 30 27 55 58
67 11 5 16 13 12 23 -3 9 -4 20 0 25 13 21 22 6 30 -48z m4919 -733 c-23 -25
-19 -30 26 -30 62 0 44 -23 -28 -35 -33 -5 -66 -15 -74 -21 -17 -14 -76 -34
-98 -34 -10 0 -6 7 12 18 27 17 37 55 17 67 -5 3 -10 17 -10 30 0 22 4 24 63
27 34 2 72 1 85 -1 21 -3 21 -5 7 -21z m418 20 c21 -2 22 -16 2 -24 -8 -3 -12
-12 -9 -20 6 -14 -3 -19 -62 -31 -24 -4 -33 -2 -38 10 -4 12 -10 14 -25 5 -25
-13 -71 -13 -71 0 0 5 -7 7 -16 3 -11 -4 -12 -8 -4 -13 23 -14 10 -25 -37 -32
-71 -9 -123 -9 -123 1 0 5 15 12 34 15 19 4 36 12 38 18 2 6 16 11 31 11 20 0
27 5 27 18 0 11 7 19 15 19 8 0 15 4 15 9 0 14 104 19 223 11z m-1977 -171 c6
-5 48 -4 95 2 88 12 206 -2 194 -22 -3 -5 -38 -8 -78 -7 -42 1 -82 -4 -95 -11
-16 -8 -41 -10 -73 -6 -52 7 -64 0 -26 -15 18 -7 14 -9 -24 -9 -39 -1 -48 2
-52 20 -3 12 0 22 9 26 13 5 13 8 -1 23 -15 16 -14 17 12 12 15 -2 33 -9 39
-13z m-5176 -409 c47 -6 126 -15 175 -20 50 -5 133 -14 185 -20 56 -6 99 -15
105 -23 6 -7 37 -19 70 -26 33 -7 67 -15 75 -18 8 -3 32 -7 54 -9 21 -2 52
-11 70 -18 54 -25 98 -30 351 -41 69 -3 72 -4 55 -15 -8 -5 -25 -10 -38 -10
-14 0 -21 -4 -17 -11 4 -6 14 -8 22 -5 22 9 36 -3 23 -19 -8 -10 -8 -19 0 -35
6 -11 8 -25 5 -31 -4 -6 7 -8 29 -6 36 4 36 4 21 -19 -8 -13 -15 -30 -15 -38
0 -9 -7 -13 -22 -9 -17 3 -19 2 -9 -5 19 -14 -3 -25 -32 -16 -19 6 -20 5 -8
-10 18 -21 37 -20 61 4 23 23 51 26 80 8 34 -21 34 1 0 30 -23 21 -29 31 -20
37 7 4 21 -1 33 -13 l21 -21 33 20 c20 12 44 19 58 17 20 -4 25 0 30 24 4 17
2 35 -5 43 -6 8 -9 19 -5 25 4 6 -7 10 -29 10 -19 0 -38 -4 -41 -10 -3 -5 -15
-10 -25 -10 -11 0 -24 -9 -30 -20 -15 -28 -27 -25 -45 10 -10 19 -11 30 -5 30
24 0 -3 20 -28 21 -15 0 -21 3 -14 6 7 3 66 -1 130 -8 64 -7 131 -13 147 -14
48 -2 96 -16 89 -26 -3 -5 -14 -7 -24 -4 -16 5 -17 2 -8 -35 6 -22 15 -40 20
-40 5 0 6 -5 3 -10 -4 -6 -10 -8 -14 -6 -4 3 -13 0 -21 -5 -13 -8 -12 -12 4
-24 15 -12 17 -17 7 -29 -10 -11 -10 -23 -3 -43 6 -15 11 -22 11 -15 1 19 19
14 33 -10 7 -13 20 -23 28 -23 8 0 17 -11 20 -25 5 -22 7 -23 13 -6 5 12 13
16 24 12 9 -4 24 1 34 10 13 12 19 13 19 4 0 -7 7 -10 15 -7 8 4 17 1 21 -5 5
-8 10 -6 18 4 6 8 24 17 39 20 24 5 30 1 38 -20 8 -21 6 -32 -11 -55 -14 -18
-17 -28 -8 -26 7 1 18 1 24 0 13 -1 17 -61 3 -61 -15 0 -24 5 -22 11 3 9 -46
4 -72 -7 -31 -12 -42 -27 -37 -46 5 -21 12 -22 47 -6 18 8 29 9 33 1 4 -5 19
-13 35 -17 15 -3 27 -13 27 -20 0 -17 -35 -27 -48 -14 -13 13 -54 6 -60 -9 -2
-7 5 -13 15 -13 15 0 16 -2 3 -10 -19 -13 69 -9 89 4 10 6 12 5 7 -2 -4 -7 -2
-12 4 -12 6 0 8 -4 5 -10 -3 -5 -18 -10 -33 -10 -40 0 -60 -16 -30 -23 12 -4
33 -7 46 -7 15 0 22 -6 22 -19 0 -11 4 -22 9 -25 5 -3 7 -16 4 -28 -4 -13 0
-25 9 -32 8 -6 18 -28 22 -49 10 -56 4 -57 -194 -43 -36 2 -112 7 -170 10 -58
4 -116 9 -130 13 -22 5 -18 8 25 19 l50 13 -53 -4 c-29 -2 -62 -11 -74 -20
-13 -8 -41 -15 -63 -15 -22 -1 -59 -5 -82 -9 -40 -8 -42 -7 -52 20 -11 32 -41
39 -61 14 -17 -20 -32 -19 -60 5 -13 11 -32 20 -44 20 -12 0 -16 4 -11 8 6 4
11 14 13 22 2 8 8 17 13 18 5 2 6 8 3 14 -4 7 5 8 27 3 19 -4 37 -12 40 -18 4
-5 19 -7 33 -3 14 3 26 3 26 -1 0 -9 89 -43 112 -43 22 0 47 35 37 53 -7 11
-3 22 13 36 23 22 60 23 171 3 26 -5 47 -5 47 0 0 4 -7 8 -15 8 -8 0 -15 7
-15 16 0 14 -1 14 -16 0 -28 -29 -47 -17 -20 13 8 9 18 28 21 44 6 21 4 27 -8
27 -9 0 -19 -5 -22 -10 -4 -6 -11 -8 -16 -4 -5 3 -9 2 -8 -3 4 -24 -3 -43 -16
-43 -10 0 -15 10 -15 30 0 17 -5 30 -11 30 -7 0 -9 -11 -6 -29 4 -21 2 -31 -9
-35 -28 -11 -57 -6 -70 12 -10 14 -15 15 -25 5 -20 -20 -29 -16 -29 12 0 27
-9 32 -28 13 -8 -8 -8 -17 -1 -30 8 -14 4 -26 -17 -53 -14 -19 -29 -35 -33
-35 -3 0 -14 18 -23 40 -13 31 -22 40 -41 40 -19 0 -26 6 -31 31 -3 17 -6 43
-6 57 0 24 1 24 18 9 10 -10 24 -17 30 -17 9 0 9 -5 0 -20 -10 -15 -10 -22 0
-32 9 -9 12 -7 12 11 0 17 10 26 40 38 22 9 40 20 40 25 0 5 5 6 10 3 6 -4 17
-2 25 5 7 6 19 10 27 9 24 -5 87 24 91 43 3 10 1 20 -4 23 -4 3 -6 12 -2 21 3
8 -5 26 -18 41 -23 25 -23 25 -3 19 15 -4 24 -2 28 9 3 8 11 15 18 14 10 0 10
-2 1 -6 -24 -9 -13 -31 18 -38 18 -4 33 -15 36 -26 6 -21 41 -35 54 -22 6 6 2
20 -11 35 -11 15 -20 31 -20 37 0 7 -10 9 -26 5 -17 -4 -25 -3 -21 3 8 12 -39
48 -75 57 -16 3 -28 11 -28 16 0 6 -4 10 -10 10 -16 0 -12 -47 5 -54 21 -8 19
-19 -5 -34 -17 -11 -23 -10 -37 4 -15 15 -17 14 -31 -11 -10 -20 -17 -24 -25
-16 -6 6 -25 11 -42 11 -26 0 -32 5 -40 33 -6 17 -14 31 -20 30 -14 -3 -19
-53 -6 -53 6 0 11 -7 11 -15 0 -8 11 -17 25 -21 14 -3 25 -12 25 -18 0 -7 11
-19 25 -26 14 -7 25 -21 25 -30 0 -14 -13 -16 -97 -15 -148 3 -142 2 -136 28
3 16 2 18 -5 8 -6 -8 -12 -9 -16 -3 -3 5 1 15 9 22 8 7 15 20 15 29 0 12 -2
13 -8 3 -6 -8 -22 -10 -55 -6 -41 6 -47 10 -47 30 0 29 -34 34 -44 7 -3 -10
-9 -24 -12 -32 -5 -10 -1 -11 17 -6 24 8 24 7 5 -13 -26 -29 -39 -17 -33 30 5
38 3 41 -45 75 -31 23 -45 39 -38 43 7 4 -4 10 -25 14 -35 7 -64 -2 -37 -11
23 -8 12 -23 -17 -23 -32 0 -46 21 -28 39 9 10 7 16 -8 26 -11 8 -25 19 -32
25 -17 15 -33 12 -33 -5 0 -18 -17 -20 -22 -3 -4 10 -11 10 -34 -1 -16 -8 -40
-15 -54 -17 -26 -2 -174 -32 -199 -40 -23 -8 2 -25 40 -27 19 -1 39 -6 46 -10
7 -4 14 1 18 13 3 11 13 20 21 20 8 0 13 -4 10 -9 -3 -4 0 -16 7 -26 12 -16
15 -16 29 -1 24 23 35 20 69 -16 23 -26 31 -30 38 -19 7 11 11 12 23 1 12 -12
12 -16 -4 -32 -23 -23 -39 -23 -31 -1 4 11 3 14 -5 9 -7 -4 -12 -13 -12 -20 0
-8 -14 -15 -35 -18 -26 -3 -32 -1 -24 8 14 17 -24 54 -55 54 -14 0 -28 5 -31
10 -4 6 -11 8 -16 4 -5 -3 -16 0 -24 6 -12 10 -22 10 -46 -1 -28 -11 -33 -10
-45 6 -8 10 -17 16 -20 12 -4 -4 -1 -13 5 -21 13 -16 7 -36 -10 -36 -6 0 -7 5
-4 10 9 14 -9 12 -23 -2 -9 -9 -15 -10 -20 -2 -4 6 -26 11 -49 10 -23 0 -40
-2 -38 -4 2 -3 -4 -17 -15 -32 -11 -16 -20 -30 -20 -32 0 -1 14 -4 30 -5 18
-1 28 2 25 7 -12 20 5 29 36 18 30 -10 35 -34 7 -32 -24 2 -9 -34 16 -39 19
-3 19 -4 -6 -15 -16 -6 -28 -16 -28 -21 0 -6 -8 -8 -17 -5 -15 5 -15 3 1 -10
11 -9 29 -16 40 -16 19 1 20 1 3 11 -24 14 -11 30 19 23 21 -5 25 -3 24 12 -4
32 -1 35 22 23 12 -7 42 -14 67 -16 37 -3 42 -1 32 11 -7 8 -8 17 -3 20 10 6
42 -35 42 -54 0 -13 17 -13 25 1 5 7 15 2 28 -12 14 -15 17 -24 9 -27 -7 -2
-12 -12 -12 -23 0 -10 -7 -19 -15 -19 -8 0 -15 7 -15 15 0 8 -10 20 -22 27
-48 26 -151 34 -168 13 -9 -10 -9 -15 -1 -15 6 0 11 -5 11 -11 0 -8 -20 -10
-61 -7 -60 4 -82 18 -72 45 3 7 -2 13 -11 13 -11 0 -16 10 -17 30 -1 17 -3 35
-4 40 -1 6 -3 15 -4 21 0 6 -8 9 -16 5 -8 -3 -28 0 -45 5 -23 8 -34 8 -45 -1
-11 -9 -15 -9 -15 -1 0 7 14 20 31 29 17 9 44 27 58 39 15 12 54 29 86 38 127
36 152 44 200 70 38 19 43 25 23 22 -34 -5 -34 -3 -3 31 34 37 33 99 -2 71
-10 -9 -13 -7 -13 9 0 11 7 22 15 26 8 3 15 10 15 17 0 6 -6 9 -14 6 -8 -3
-17 1 -20 9 -4 10 -13 13 -26 9 -24 -8 -26 7 -4 26 12 10 20 10 34 1 11 -7 21
-8 25 -2 3 5 -3 13 -12 19 -15 8 -11 11 24 17 l43 6 -23 18 c-12 9 -46 23 -76
30 -48 11 -56 11 -66 -4 -16 -22 -37 -20 -63 4 -12 12 -22 18 -22 15 0 -3 -10
0 -22 7 -13 7 -26 11 -30 10 -5 -1 -8 7 -8 19 0 19 -5 20 -74 17 -71 -3 -74
-2 -72 19 1 27 16 28 146 13z m71 -181 c19 0 43 1 54 3 14 2 21 -3 23 -19 2
-13 6 -23 10 -23 4 0 8 -14 9 -30 2 -22 -2 -30 -14 -30 -10 0 -14 6 -10 20 3
13 0 20 -9 20 -8 0 -14 -10 -15 -22 -1 -72 -8 -100 -26 -117 -13 -13 -25 -16
-34 -10 -12 7 -12 9 1 9 10 1 5 9 -13 24 l-28 22 25 12 c22 10 25 9 29 -11 2
-12 3 -7 1 11 -1 18 1 30 7 27 15 -10 10 21 -5 34 -10 8 -16 9 -21 2 -4 -7
-13 -6 -26 2 -16 10 -22 9 -30 -3 -8 -11 -9 -8 -5 13 4 15 2 36 -4 46 -11 22
3 33 31 25 9 -3 32 -5 50 -5z m-1251 -39 c11 -6 17 -17 14 -25 -4 -8 -1 -15 5
-15 6 0 11 -6 11 -14 0 -8 9 -18 20 -21 11 -3 20 -13 20 -22 0 -15 31 -64 57
-91 17 -18 8 -31 -17 -25 -24 6 -27 -12 -4 -25 14 -8 14 -10 0 -21 -9 -8 -16
-24 -16 -36 0 -15 -7 -25 -21 -28 -13 -4 -19 -1 -16 6 3 8 -11 12 -46 12 -31
0 -52 5 -54 13 -3 7 4 12 16 12 11 0 23 5 26 10 3 6 -1 10 -9 10 -9 0 -16 5
-16 11 0 7 9 9 23 5 12 -3 30 -6 41 -6 15 0 16 -3 7 -14 -8 -10 -9 -16 -1 -21
5 -3 10 1 10 10 0 10 5 13 12 9 7 -4 8 -3 4 4 -4 7 -3 27 2 46 8 27 6 36 -8
49 -16 14 -19 14 -24 1 -3 -9 -11 -12 -16 -9 -8 5 -6 15 5 31 20 32 12 60 -25
79 -25 13 -29 13 -34 -2 -4 -9 -4 -18 -1 -21 3 -3 5 1 5 8 0 9 5 7 15 -6 21
-28 18 -37 -10 -30 -14 4 -25 2 -25 -4 0 -5 5 -10 10 -10 18 0 10 -22 -9 -27
-23 -6 -37 -33 -17 -33 8 0 16 -6 19 -12 2 -8 8 -9 13 -4 5 5 4 11 -3 13 -15
5 -17 23 -4 23 17 0 22 -38 9 -59 -7 -12 -21 -21 -31 -21 -23 0 -33 -28 -18
-52 9 -15 9 -23 0 -34 -14 -17 -39 -18 -40 -1 -2 29 3 104 8 122 4 16 3 18 -7
8 -7 -7 -14 -33 -15 -58 -2 -65 -30 -81 -74 -44 -18 15 -21 23 -13 31 7 7 12
19 12 28 0 8 16 28 35 45 19 16 35 36 35 43 0 7 11 17 24 23 30 14 49 48 50
94 1 48 28 66 66 45z m-419 -120 c46 13 49 13 49 -9 0 -23 16 -36 25 -21 11
17 25 11 25 -11 0 -14 5 -19 14 -16 17 7 30 -19 14 -29 -17 -11 -132 -12 -139
-1 -4 5 -12 8 -18 6 -6 -2 0 -16 16 -33 l27 -29 -27 -21 c-31 -25 -34 -36 -11
-36 8 0 12 -5 9 -10 -7 -11 -54 -3 -69 11 -5 5 -4 14 2 22 7 8 11 33 10 56 -1
23 4 47 10 53 16 16 15 28 -3 28 -9 0 -20 -10 -25 -22 -7 -19 -9 -16 -9 19 -1
36 2 42 22 45 12 2 27 0 33 -4 6 -4 26 -3 45 2z m459 -270 c0 -4 33 -12 73
-19 39 -7 113 -27 162 -45 138 -51 163 -58 185 -51 21 7 28 -9 9 -20 -6 -4
-35 -8 -65 -8 -30 -1 -54 -5 -54 -9 0 -4 5 -7 11 -5 6 1 14 -4 16 -12 4 -9 -1
-11 -18 -7 -13 3 -18 3 -11 0 10 -5 9 -11 -7 -28 -12 -13 -20 -33 -19 -45 3
-22 1 -22 -129 -27 l-133 -5 0 35 c0 41 -9 68 -20 61 -4 -3 -10 1 -13 9 -4 10
4 15 24 18 25 4 29 2 27 -16 -2 -14 5 -24 20 -31 12 -5 25 -18 28 -27 3 -10
12 -18 21 -18 12 0 14 9 11 40 -3 34 -1 40 15 40 14 0 18 -5 14 -20 -4 -17 0
-20 34 -20 27 0 39 -4 39 -14 0 -25 27 -25 39 0 14 32 14 37 -1 28 -8 -5 -9
-2 -5 9 11 30 -4 77 -24 77 -11 0 -19 7 -19 16 0 12 -7 14 -30 9 -18 -4 -30
-3 -30 4 0 5 -27 13 -60 17 -33 4 -60 11 -60 15 0 5 -6 9 -12 9 -7 0 -30 11
-52 24 l-38 24 36 -1 c20 -1 36 -4 36 -7z m795 -91 c-4 -5 -15 -9 -26 -9 -12
0 -17 -4 -13 -11 3 -6 16 -8 27 -5 27 7 49 -22 36 -46 -11 -20 -44 -24 -54 -8
-4 7 -29 9 -61 6 -31 -3 -54 -1 -54 4 0 6 -30 9 -66 9 -69 -1 -85 4 -66 23 13
13 122 18 139 6 13 -10 27 7 18 22 -6 10 19 18 75 23 41 3 53 -1 45 -14z
m6988 -83 c9 -9 41 -17 78 -19 35 -2 71 -7 79 -10 8 -4 28 -8 45 -9 23 -2 32
2 40 20 10 24 40 30 48 10 3 -10 9 -10 26 0 18 11 21 10 21 -7 0 -11 4 -22 9
-25 13 -9 1 -46 -15 -46 -13 0 -19 19 -14 50 1 8 -11 0 -26 -18 -16 -18 -35
-32 -43 -32 -7 0 -22 -9 -32 -21 -19 -23 -59 -19 -59 6 0 25 -29 45 -53 36
-28 -11 -28 -33 1 -46 27 -12 29 -25 2 -18 -11 3 -20 1 -20 -5 0 -5 9 -12 20
-15 16 -4 20 -14 20 -43 0 -20 -3 -34 -7 -31 -3 4 -12 2 -19 -4 -9 -7 -14 -5
-19 11 -3 11 -11 18 -16 15 -5 -4 -9 -2 -9 3 0 6 7 13 16 16 12 5 14 14 9 38
-4 18 -10 35 -14 38 -3 3 -11 14 -17 25 -9 16 -21 20 -68 20 l-57 0 7 30 c3
16 8 33 11 38 7 12 41 8 56 -7z m-145 -5 c26 16 31 12 35 -32 3 -25 10 -35 25
-37 11 -2 22 -12 25 -22 4 -15 -3 -20 -35 -25 -22 -4 -42 -13 -45 -21 -6 -17
-40 -18 -46 -1 -4 9 -8 8 -16 -3 -9 -12 -11 -11 -11 7 0 12 5 25 10 28 15 9
12 55 -4 55 -21 0 -36 -23 -38 -63 -3 -35 -4 -35 -25 -22 -12 8 -24 11 -28 6
-3 -5 -19 -12 -35 -16 -17 -4 -35 -15 -40 -25 -15 -29 -41 -33 -57 -10 -8 12
-20 19 -27 17 -8 -3 -12 7 -13 28 -1 47 -10 56 -46 51 -18 -3 -26 -3 -19 0 6
3 12 12 12 19 0 30 54 54 119 53 34 -1 64 -4 66 -8 5 -7 143 14 152 24 4 3 10
1 13 -5 5 -8 13 -7 28 2z m-8072 -58 c24 -24 120 -25 170 -2 35 15 70 16 47 0
-5 -3 -9 -17 -9 -31 0 -17 -5 -24 -15 -21 -43 12 -72 12 -87 -1 -13 -11 -41
-13 -119 -10 l-103 4 0 28 c0 23 5 28 30 32 17 3 33 1 36 -4 3 -4 -6 -8 -20
-8 -14 0 -28 -4 -31 -10 -8 -13 55 -13 75 0 8 5 10 10 4 10 -7 0 -14 7 -18 15
-8 21 18 19 40 -2z m5988 -10 c4 -5 12 -9 17 -9 5 -1 10 -2 12 -4 5 -5 103
-10 267 -14 213 -5 200 -4 200 -15 0 -5 -17 -12 -37 -16 -21 -4 -52 -15 -68
-25 -25 -15 -43 -18 -101 -13 -42 3 -74 1 -77 -5 -8 -12 112 -24 235 -22 83 1
97 -1 92 -13 -4 -12 -31 -15 -132 -17 -70 -1 -138 -2 -152 -2 -49 -1 -240 25
-240 34 0 4 9 8 20 8 11 0 20 3 20 8 0 4 -33 8 -72 8 -172 3 -229 7 -225 18 4
10 9 12 50 15 10 1 17 9 17 20 0 13 9 20 30 23 22 3 30 1 30 -11 0 -9 3 -12 8
-6 11 15 65 44 83 45 9 0 19 -3 23 -7z m-3609 -34 c5 -5 18 -10 30 -10 11 -1
2 -5 -20 -9 -27 -6 -46 -4 -59 4 -15 10 -28 9 -63 -2 -24 -8 -42 -16 -40 -18
2 -2 24 -5 48 -5 70 -3 86 -26 49 -69 -11 -13 -20 -26 -20 -30 0 -12 -75 -8
-147 6 -40 9 -73 20 -73 25 0 6 10 9 21 7 17 -2 25 6 40 42 10 25 18 39 18 33
1 -7 8 -13 17 -13 10 0 14 6 10 15 -6 16 0 18 58 15 29 -1 37 2 34 12 -4 10 5
12 41 10 25 -2 50 -8 56 -13z m5202 -4 c39 -13 48 -22 57 -52 6 -18 2 -22 -19
-25 -39 -5 -35 -21 9 -30 25 -5 43 -4 52 3 11 9 14 7 15 -7 2 -25 2 -25 -6
-57 -6 -22 -4 -26 8 -21 9 3 19 19 22 35 6 25 11 29 40 29 18 0 35 6 38 13 3
8 11 4 25 -11 20 -23 23 -23 52 -9 16 9 30 11 30 6 0 -14 17 -11 34 6 21 21
31 19 50 -10 23 -35 13 -45 -37 -40 -109 11 -145 11 -177 -1 -31 -11 -32 -13
-10 -13 19 -1 26 -7 27 -21 2 -28 -39 -47 -70 -33 -28 14 -77 16 -77 3 0 -15
-72 -31 -87 -18 -9 8 -17 7 -28 -2 -23 -19 -27 -7 -10 26 21 41 19 53 -12 65
-40 15 -78 -2 -78 -35 0 -24 -6 -30 -50 -45 -27 -9 -49 -22 -48 -28 1 -6 -9
-14 -23 -17 -20 -5 -31 -1 -50 19 -22 24 -23 29 -13 81 12 64 3 82 -29 65 -17
-9 -20 -18 -15 -46 4 -28 1 -39 -13 -50 -26 -20 -28 -19 -40 14 -9 21 -8 34 2
52 7 13 13 33 14 43 0 17 7 18 84 14 47 -3 88 -3 91 1 4 3 12 6 18 6 7 0 12
11 12 25 0 14 -5 24 -12 23 -25 -5 -21 27 5 41 33 17 170 18 219 1z m-537
-159 c0 -42 -23 -130 -40 -155 -17 -25 -28 -27 -156 -33 -23 -1 -37 -11 -58
-40 -18 -25 -35 -38 -50 -38 -15 0 -26 -7 -28 -18 -3 -10 -13 -19 -22 -19 -11
0 -13 4 -6 11 5 5 10 23 10 39 0 22 -4 28 -17 25 -13 -2 -19 -14 -21 -40 -2
-26 -9 -37 -23 -41 -10 -3 -19 -12 -19 -21 0 -19 21 -21 38 -4 9 9 15 9 23 1
9 -9 2 -16 -26 -27 -50 -21 -55 -20 -55 8 0 26 -36 42 -71 31 -21 -7 -25 -30
-8 -41 8 -4 8 -9 0 -17 -6 -6 -11 -28 -11 -49 0 -38 0 -38 -41 -38 -48 0 -71
18 -57 44 5 9 7 30 3 45 -3 16 -2 32 3 35 5 3 7 17 4 31 -6 35 -43 30 -59 -7
-12 -29 -57 -48 -74 -31 -6 6 -6 19 1 37 6 17 7 41 1 67 -8 37 -8 39 18 45 62
13 71 21 71 64 0 26 -4 39 -10 35 -6 -4 -17 -2 -24 4 -19 16 -43 4 -50 -25 -7
-26 -26 -33 -26 -9 0 9 -9 15 -22 15 -12 0 -32 10 -45 21 -20 20 -23 20 -29 5
-10 -26 -24 -18 -24 14 l0 30 100 0 c60 0 100 4 100 10 0 6 -7 10 -15 10 -21
0 -19 30 3 31 74 6 196 -7 200 -20 3 -9 7 -9 18 0 11 9 18 9 29 -1 8 -7 15 -8
15 -3 0 13 1 13 165 18 77 3 165 9 195 14 88 14 90 14 90 -13z m-3690 -21 c0
-17 -6 -18 -122 -15 -93 2 -128 -4 -128 -23 0 -7 -11 -19 -25 -28 -21 -12 -36
-13 -89 -4 -69 11 -97 25 -52 25 20 0 27 4 23 14 -6 14 38 26 101 26 17 0 32
5 32 10 0 6 50 10 130 10 109 0 130 -2 130 -15z m137 -42 c2 -6 -6 -14 -19
-18 -20 -6 -21 -8 -5 -12 25 -6 37 -44 37 -111 0 -68 -2 -70 -60 -104 -25 -15
-61 -42 -80 -60 -19 -19 -51 -41 -70 -50 -38 -18 -60 -37 -105 -92 -42 -53
-87 -78 -132 -74 -34 3 -38 0 -38 -19 -1 -17 -20 -35 -78 -73 -42 -27 -80 -50
-85 -50 -4 0 -24 -11 -44 -25 -42 -28 -80 -32 -98 -10 -7 8 -18 15 -25 15 -7
0 -15 -7 -19 -15 -3 -8 -12 -15 -21 -15 -13 0 -15 -7 -9 -35 5 -26 3 -35 -7
-35 -8 0 -39 -13 -69 -30 -61 -33 -93 -38 -84 -15 6 14 -11 20 -38 16 -5 0 -8
6 -8 14 0 8 8 15 18 15 14 0 15 2 2 10 -8 5 -28 10 -43 10 -23 0 -30 -6 -40
-32 -6 -18 -10 -36 -9 -40 1 -5 -9 -8 -23 -8 -18 0 -25 -5 -25 -19 0 -21 33
-33 67 -25 41 11 25 -15 -38 -61 -67 -49 -86 -56 -69 -24 6 11 8 33 5 50 -5
21 -3 29 7 29 9 1 7 5 -5 14 -18 14 -18 15 0 35 9 12 29 21 42 21 19 0 22 3
13 12 -7 7 -12 20 -12 29 0 10 -6 19 -12 22 -10 3 -10 7 0 20 13 16 9 37 -7
37 -13 0 -20 -54 -10 -67 7 -8 4 -13 -8 -15 -26 -6 -70 11 -77 29 -5 11 -15
14 -40 9 -27 -5 -37 -3 -44 11 -9 16 -13 15 -37 -10 -27 -27 -85 -45 -105 -32
-16 10 0 27 21 22 15 -4 19 0 19 19 0 30 -9 30 -44 3 -33 -26 -55 -14 -36 21
10 19 9 21 -7 18 -10 -2 -19 -14 -21 -26 -3 -21 -7 -23 -43 -17 -29 5 -43 3
-55 -10 -13 -12 -28 -14 -74 -9 -38 4 -60 3 -64 -5 -4 -6 -21 -11 -38 -11 -17
0 -36 -7 -43 -16 -10 -15 -14 -13 -33 14 l-22 30 21 5 c16 4 19 11 14 26 -5
17 0 21 29 27 20 3 36 11 36 18 0 21 -18 39 -34 33 -8 -3 -18 -2 -22 4 -11 19
-34 -12 -28 -37 5 -20 2 -24 -17 -24 -18 0 -20 -3 -10 -9 24 -15 3 -30 -29
-21 -17 5 -30 5 -30 0 0 -15 -75 -8 -94 8 -14 13 -20 14 -23 5 -5 -14 -49 -18
-55 -5 -1 5 -15 12 -31 16 -23 5 -29 3 -37 -18 -10 -29 -32 -44 -38 -28 -7 22
-29 12 -35 -15 -3 -17 -18 -35 -36 -46 -17 -10 -28 -23 -25 -31 3 -7 -2 -19
-11 -26 -13 -11 -23 -11 -57 0 -35 12 -42 12 -52 -1 -6 -7 -18 -13 -26 -13 -8
1 -20 2 -26 3 -6 1 -9 14 -6 31 3 18 0 30 -7 30 -6 0 -11 -11 -11 -25 0 -18
-4 -23 -15 -19 -8 4 -15 17 -15 30 0 15 -6 24 -15 24 -9 0 -15 -9 -15 -24 0
-28 -15 -43 -23 -22 -3 8 -16 12 -31 11 -14 -2 -26 1 -26 6 0 5 -8 9 -17 9
-11 0 -3 8 17 17 19 10 38 22 42 29 5 7 25 11 45 10 21 -1 52 1 70 5 17 3 36
2 41 -3 11 -11 53 -7 52 5 0 4 0 22 0 40 0 24 -3 28 -10 17 -7 -12 -12 -12
-22 -2 -9 9 -9 15 0 24 16 16 81 -4 116 -37 31 -29 36 -30 36 -11 0 16 27 29
42 19 7 -3 8 -1 4 5 -5 8 2 12 19 12 38 0 116 19 147 36 19 10 33 12 44 6 9
-5 25 -7 34 -5 10 3 21 0 24 -6 12 -19 46 -13 46 9 0 11 -5 20 -11 20 -6 0 -8
8 -4 19 4 15 -1 20 -27 26 -18 5 -39 8 -45 8 -7 0 -13 7 -13 17 0 10 -3 26 -7
36 -5 14 -2 16 23 11 155 -28 248 -38 268 -29 17 9 18 11 4 11 -21 1 -45 40
-26 42 7 1 18 0 23 -1 6 -1 32 -2 59 -1 51 1 52 -1 31 -51 -5 -14 -2 -18 14
-18 21 0 25 8 22 41 -2 22 20 26 122 23 51 -2 87 0 87 6 0 5 19 31 43 58 24
26 49 64 57 83 15 37 29 51 42 42 5 -2 0 -21 -12 -40 -23 -40 -23 -38 8 -47
18 -6 22 -3 22 13 0 12 5 21 10 21 6 0 10 9 10 20 0 11 -4 20 -10 20 -22 0 -8
37 20 54 19 11 28 22 23 29 -4 7 -8 24 -9 39 -2 26 0 27 52 27 58 -1 58 -2 38
-67 -2 -9 4 -10 23 -6 14 4 34 7 45 8 25 1 25 19 -1 31 -55 26 -13 39 174 54
83 7 173 15 200 17 80 8 294 11 301 5 3 -3 25 -6 50 -7 37 -2 44 1 44 16 0 25
-18 34 -36 19 -10 -8 -18 -9 -22 -3 -4 6 -16 16 -27 21 -18 10 -18 11 5 12 14
0 45 2 70 5 25 2 50 5 55 6 6 0 2 5 -9 11 -15 9 -16 13 -5 20 8 5 22 9 32 9
15 0 15 -3 5 -20 -10 -15 -10 -22 0 -32 6 -6 12 -20 12 -30 0 -24 13 -23 35 2
14 15 21 17 31 9 10 -8 27 -7 63 5 28 9 57 16 65 16 28 0 27 20 -1 31 -18 7
-40 7 -65 1 -25 -7 -38 -6 -38 0 0 6 -7 5 -15 -2 -11 -9 -19 -10 -26 -3 -18
18 28 37 116 49 89 12 97 12 102 -3z m-2737 -49 c30 -8 63 -14 73 -14 11 0 15
-4 11 -12 -5 -7 -3 -8 5 -3 7 4 22 -1 34 -13 12 -11 29 -22 37 -26 8 -3 -11
-4 -43 -3 -42 3 -60 0 -64 -9 -7 -19 -83 -16 -83 3 0 7 -9 13 -20 13 -11 0
-20 4 -20 10 0 5 -7 7 -15 4 -9 -4 -15 0 -15 10 0 24 -13 19 -33 -11 l-17 -28
6 26 c3 15 1 30 -5 34 -8 4 -8 12 -1 25 11 20 50 19 150 -6z m225 -176 c6 -3
55 -11 110 -18 113 -14 125 -18 100 -36 -16 -12 -15 -13 11 -19 16 -3 43 -10
60 -15 17 -6 38 -10 47 -10 9 0 17 -4 17 -10 0 -5 17 -10 38 -10 26 0 45 -7
56 -19 11 -12 24 -17 34 -13 15 5 15 4 0 -12 -10 -9 -18 -24 -18 -32 0 -19
-47 -29 -66 -13 -13 10 -16 9 -21 -9 -10 -41 -37 -22 -57 41 -5 14 -10 16 -25
7 -27 -14 -31 -13 -31 10 0 11 -6 20 -14 20 -8 0 -16 6 -19 13 -3 10 -9 10
-26 0 -11 -7 -29 -13 -39 -13 -10 0 -22 -4 -27 -9 -6 -5 -26 -6 -45 -2 -27 5
-31 8 -17 14 23 9 11 30 -13 22 -11 -3 -20 0 -24 10 -3 8 -13 15 -23 15 -14 0
-15 2 -4 9 8 5 -1 8 -27 7 -48 -1 -60 8 -39 28 8 8 17 12 21 9 3 -4 6 1 6 10
0 13 -10 17 -42 17 -24 0 -38 4 -31 8 14 9 94 9 108 0z m-687 -186 c2 -6 -5
-12 -15 -12 -17 -1 -17 -1 0 -11 10 -6 25 -8 33 -5 17 6 19 -15 3 -31 -15 -15
-2 -53 16 -46 11 3 12 10 5 23 -7 14 -5 19 10 23 10 3 21 0 23 -6 2 -6 28 -11
58 -12 65 -2 99 -12 99 -30 0 -17 -38 -26 -48 -10 -4 7 -17 15 -29 19 -16 5
-23 2 -28 -14 -4 -13 -15 -20 -32 -20 -21 0 -24 -4 -20 -21 3 -12 3 -18 0 -15
-9 8 -35 -32 -29 -43 4 -5 -5 -4 -18 2 -13 6 -22 16 -19 23 5 13 -77 17 -97 4
-7 -4 -13 -22 -12 -38 1 -37 -23 -50 -39 -21 -9 17 -7 21 11 26 12 3 19 11 16
19 -3 7 -1 16 3 19 5 2 12 21 15 40 4 19 11 35 17 35 17 0 0 18 -33 34 -29 15
-32 15 -50 -6 -14 -16 -21 -19 -30 -10 -9 9 -5 14 13 21 17 7 19 10 7 10 -19
1 -34 42 -23 61 10 15 187 9 193 -8z m7603 -182 c26 -14 24 -25 -8 -39 l-26
-12 29 -16 c20 -11 51 -16 97 -15 64 1 68 0 62 -19 -6 -17 -3 -20 21 -17 15 2
29 -3 31 -10 3 -8 -1 -10 -13 -5 -15 5 -16 2 -10 -23 l8 -29 -21 24 c-12 13
-21 20 -21 14 0 -5 -12 -16 -27 -23 -20 -9 -24 -14 -13 -18 32 -11 38 -26 14
-38 -23 -12 -73 -1 -126 27 -13 7 -20 6 -23 -3 -4 -9 -26 -15 -65 -16 -50 -2
-63 1 -81 19 -21 21 -21 23 -4 36 11 7 26 11 34 9 45 -13 67 -15 80 -7 12 8
12 12 2 25 -8 9 -20 16 -27 16 -8 0 -14 7 -14 15 0 22 53 19 75 -5 20 -22 40
-26 51 -8 5 7 0 9 -14 6 -16 -5 -20 -2 -17 13 3 14 -2 19 -18 19 -32 0 -49 14
-41 33 4 11 0 19 -10 23 -9 3 -16 12 -16 20 0 17 61 19 91 4z m889 -90 c0 -6
-9 -10 -20 -10 -11 0 -20 -2 -20 -5 0 -3 9 -15 20 -27 11 -12 20 -25 20 -29 0
-13 -40 -21 -94 -21 -59 1 -89 -6 -81 -18 3 -4 2 -15 -1 -24 -4 -12 -10 -13
-23 -4 -14 9 -23 6 -40 -11 -18 -18 -29 -21 -54 -15 -18 4 -43 7 -57 8 -16 1
-26 8 -28 20 -3 15 0 18 17 13 12 -3 21 -1 21 5 0 6 20 8 46 6 42 -3 47 -1 50
20 2 12 -1 22 -6 22 -6 0 -10 5 -10 10 0 6 9 10 20 10 11 0 20 -4 20 -9 0 -8
51 -8 113 -2 4 1 7 7 7 15 0 8 9 18 20 21 11 4 17 11 14 17 -11 18 26 39 47
27 11 -5 19 -14 19 -19z m-1447 -24 c20 -9 37 -21 37 -26 0 -16 18 -11 37 9
16 17 25 19 58 11 25 -6 41 -6 43 0 6 18 32 10 32 -8 0 -11 10 -24 23 -30 20
-10 20 -11 2 -9 -11 1 -19 -2 -18 -8 3 -17 -120 -13 -134 5 -8 9 -12 10 -13 3
0 -6 -7 -19 -16 -27 -22 -23 -163 -22 -207 0 -20 11 -59 17 -104 18 -77 2 -96
8 -66 24 25 13 73 17 101 8 17 -6 32 0 64 23 46 34 93 36 161 7z m-7278 -16
c0 -22 -5 -30 -17 -30 -20 0 -24 -15 -7 -26 25 -15 113 -14 137 2 17 11 27 13
35 5 8 -8 8 -11 -1 -11 -7 0 -12 -9 -12 -21 0 -12 -8 -23 -19 -26 -12 -3 -17
-11 -14 -19 3 -8 0 -14 -6 -14 -6 0 -11 7 -11 15 0 8 -4 15 -10 15 -6 0 -9 5
-8 12 2 7 -9 12 -27 12 -25 1 -30 -3 -30 -24 0 -31 -32 -34 -57 -5 -13 16 -19
18 -29 8 -7 -7 -23 -13 -35 -13 -23 0 -23 1 -7 38 8 20 21 41 29 45 8 4 14 14
14 21 0 12 24 28 60 39 8 3 15 6 15 6 1 1 1 -12 0 -29z m8763 -125 c19 -5 21
-9 11 -21 -6 -8 -18 -14 -25 -14 -8 0 -14 -4 -14 -10 0 -5 -17 -10 -37 -10
-21 -1 -63 -9 -93 -20 -51 -18 -52 -19 -20 -18 35 1 87 -19 76 -29 -2 -3 -1
-15 3 -27 8 -20 6 -21 -75 -24 l-84 -4 0 26 c0 19 5 26 20 26 11 0 20 7 20 15
0 8 -6 15 -14 15 -7 0 -19 -7 -26 -15 -7 -8 -20 -15 -30 -15 -10 0 -20 -6 -23
-14 -4 -9 -14 -12 -26 -9 -24 6 -29 33 -6 33 9 0 12 6 9 15 -5 11 -11 12 -24
5 -10 -6 -30 -10 -44 -10 -20 0 -26 5 -26 21 0 19 4 20 56 16 31 -3 59 -9 63
-15 9 -15 161 34 161 51 0 5 5 5 11 1 6 -3 15 0 20 7 5 9 9 10 9 2 0 -16 50 8
50 25 0 8 7 11 18 8 9 -2 27 -7 40 -11z m-711 -14 c17 -5 35 -5 40 0 14 14 55
-1 48 -19 -5 -12 2 -14 42 -8 l48 6 -39 -21 c-31 -16 -40 -18 -47 -7 -7 10 -9
9 -9 -4 0 -10 -8 -18 -17 -18 -10 -1 -35 -3 -55 -6 -29 -4 -38 -2 -38 9 0 21
-23 37 -39 28 -10 -7 -10 -10 -1 -16 16 -10 -6 -25 -39 -25 -17 0 -22 4 -17
16 3 9 6 22 6 30 0 8 7 14 15 14 9 0 18 7 21 15 7 17 35 19 81 6z m-6370 -81
c14 -27 17 -42 9 -50 -16 -16 -30 -12 -16 5 10 13 9 15 -10 15 -31 0 -22 -35
10 -37 14 0 27 -2 30 -3 3 -1 21 -4 42 -5 26 -3 41 2 53 15 10 11 22 17 28 13
6 -3 7 -1 3 5 -8 14 15 52 32 52 7 0 15 -6 18 -14 3 -7 14 -11 27 -9 18 4 23
0 24 -17 1 -16 -2 -20 -14 -16 -10 4 -14 2 -10 -8 4 -10 0 -12 -14 -9 -11 3
-21 -1 -25 -11 -3 -9 -14 -16 -23 -16 -9 0 -22 -4 -30 -9 -26 -17 9 -37 62
-36 76 0 86 -38 14 -54 -31 -8 -36 -6 -42 13 -7 22 -9 18 -19 -26 -4 -16 -10
-28 -15 -28 -12 0 -166 -92 -253 -152 -33 -22 -38 -22 -38 -3 0 8 -4 15 -10
15 -5 0 -10 7 -10 15 0 33 -61 -1 -74 -41 -8 -25 -43 -29 -43 -6 -1 30 -15 63
-27 59 -6 -2 -10 -18 -10 -36 1 -17 -2 -31 -7 -31 -4 0 -6 -7 -3 -15 7 -18 0
-19 -27 -5 -10 6 -19 19 -19 30 0 10 -5 22 -11 26 -14 8 -31 -16 -24 -34 5
-14 -33 -32 -67 -32 -17 0 -20 4 -14 30 4 25 2 30 -13 30 -12 0 -20 10 -24 29
-3 16 -13 31 -22 35 -9 3 -14 2 -11 -2 2 -4 -2 -16 -11 -27 -14 -20 -14 -20
-33 3 -21 25 -45 29 -54 7 -7 -19 -35 -20 -42 -1 -4 12 -57 14 -136 7 -3 -1
-9 -14 -13 -31 -4 -16 -13 -30 -21 -30 -8 0 -14 -4 -14 -9 0 -4 -12 -21 -26
-36 -23 -25 -24 -31 -13 -52 9 -17 18 -22 33 -17 12 4 23 11 24 15 2 5 13 9
23 9 11 0 30 5 41 11 16 8 22 8 29 -2 6 -10 11 -10 22 -1 12 10 16 10 20 -2 3
-8 -5 -18 -21 -26 l-27 -12 25 -13 c14 -7 67 -16 117 -19 85 -6 94 -5 110 14
11 12 30 20 50 20 31 0 33 2 27 25 -7 28 -2 30 27 14 11 -5 17 -14 14 -20 -9
-14 5 -11 21 6 9 8 26 15 40 15 13 0 24 4 24 8 0 4 20 9 45 10 25 1 45 -2 45
-6 0 -5 -14 -21 -31 -38 -28 -26 -36 -29 -97 -28 -37 0 -55 -1 -39 -3 33 -5
36 -22 5 -24 l-23 -2 23 -4 c12 -2 22 -9 22 -14 0 -11 19 -9 -180 -15 -91 -2
-206 -9 -257 -14 -51 -6 -124 -10 -163 -10 -63 0 -70 -2 -70 -20 0 -14 -7 -20
-21 -20 -11 0 -18 4 -14 9 10 17 -54 56 -86 53 -24 -3 -29 0 -29 17 0 16 6 21
25 21 18 0 25 5 25 20 0 17 -3 19 -19 10 -25 -13 -28 -13 -35 5 -4 12 6 14 54
14 33 -1 60 -4 60 -8 0 -3 15 -7 33 -7 17 0 55 -4 82 -8 46 -6 48 -5 26 8 -14
7 -31 12 -38 9 -7 -3 -13 1 -13 8 0 8 -11 14 -25 14 -14 0 -25 -3 -25 -7 0 -5
-7 -8 -15 -8 -8 0 -15 5 -15 11 0 5 4 8 9 5 15 -10 35 24 36 60 1 47 -7 56
-38 48 -22 -5 -27 -12 -27 -35 0 -19 -5 -29 -15 -29 -8 0 -15 5 -15 10 0 23
-43 8 -71 -25 -17 -19 -39 -35 -49 -35 -29 0 -31 15 -2 17 26 1 42 19 54 62 5
19 1 33 -18 58 -23 30 -21 39 9 34 4 0 7 3 7 8 0 5 8 17 17 27 16 15 16 17 -1
30 -13 9 -24 10 -37 3 -13 -6 -19 -6 -19 1 0 5 7 10 15 10 8 0 15 9 15 20 0
25 35 27 48 3 9 -16 22 -14 53 9 24 17 49 3 49 -28 0 -23 -3 -25 -26 -20 -29
8 -64 -1 -64 -15 0 -14 134 -11 148 3 10 10 15 10 20 1 13 -21 35 2 29 29 -6
22 -3 24 27 24 28 0 32 -2 19 -11 -13 -10 -14 -13 -2 -21 17 -10 81 -6 93 7 6
5 14 9 18 9 15 0 8 -20 -12 -38 -20 -17 -20 -17 32 -22 29 -3 60 -2 68 2 8 3
35 12 60 19 62 17 63 19 45 39 -10 11 -14 27 -11 37 3 11 0 26 -6 35 -14 18
-66 27 -86 15 -6 -5 -16 -6 -21 -3 -5 3 -12 -4 -15 -17 -7 -21 -7 -21 -16 -2
-17 39 -11 55 20 62 17 3 30 12 30 19 0 8 5 14 10 14 6 0 10 -7 10 -15 0 -20
13 -19 41 4 19 15 21 22 12 32 -10 10 -16 9 -29 -2 -15 -12 -16 -12 -9 10 4
14 12 29 17 35 11 12 168 9 168 -2 0 -4 -7 -19 -14 -34 -11 -20 -12 -28 -3
-28 8 0 8 -3 -1 -9 -10 -6 -8 -10 11 -15 20 -5 23 -11 19 -31 -2 -14 -8 -25
-13 -25 -5 0 -4 -11 1 -25 6 -16 6 -25 0 -25 -6 0 -10 -6 -10 -13 0 -7 11 -12
28 -11 54 2 54 2 47 34 -5 21 -3 30 6 30 7 0 20 6 28 14 9 7 25 16 37 20 20 6
21 4 16 -71 -2 -43 -5 -79 -6 -80 -1 -1 -19 3 -40 9 -34 11 -40 10 -52 -7 -8
-11 -21 -28 -29 -38 -16 -19 -15 -20 35 -31 14 -2 33 1 42 8 12 9 42 12 94 10
43 -3 73 0 70 5 -8 12 49 32 94 35 118 6 112 5 105 26 -5 14 -2 20 10 20 13 0
14 4 5 20 -8 14 -8 26 0 40 8 14 8 26 0 40 -10 18 -8 20 22 21 33 1 33 1 -7
10 -48 12 -85 4 -85 -17 0 -8 5 -12 10 -9 15 9 12 -4 -5 -21 -8 -9 -19 -12
-25 -9 -6 4 -10 -10 -10 -35 0 -33 4 -43 20 -47 32 -8 23 -23 -14 -23 -40 0
-55 16 -61 65 -4 31 -3 36 8 26 8 -6 17 -8 20 -4 9 9 -12 33 -29 33 -11 0 -13
9 -8 40 5 33 4 40 -10 40 -11 0 -14 4 -9 13 4 6 8 17 8 22 0 6 15 9 33 9 17
-1 32 2 32 7 0 5 -9 9 -20 9 -11 0 -20 5 -20 10 0 16 27 12 62 -10 36 -22 58
-26 58 -10 0 6 -11 10 -25 10 -14 0 -25 5 -25 10 0 6 11 10 24 10 13 0 26 7
30 15 9 25 23 17 43 -25z m5293 2 c0 -5 8 -17 18 -28 16 -17 30 -19 110 -17
50 1 94 -2 97 -8 4 -5 15 -9 26 -9 12 0 19 -5 17 -12 -3 -8 -27 -14 -58 -16
-30 -2 -60 -8 -67 -14 -8 -6 -13 -7 -13 -1 0 6 -32 13 -72 17 -120 11 -144 22
-90 42 27 11 27 11 -10 11 -26 1 -38 -3 -38 -13 0 -20 -18 -17 -30 5 -18 35
-12 43 35 40 24 -2 47 0 51 4 10 10 24 9 24 -1z m-7033 -122 c13 0 13 -3 3
-15 -10 -13 -10 -19 4 -34 12 -13 14 -21 6 -26 -8 -5 -8 -11 -1 -19 6 -7 8
-15 5 -19 -3 -3 4 -11 16 -17 12 -7 19 -18 16 -26 -3 -8 -1 -14 5 -14 6 0 8
-4 5 -9 -6 -9 -106 6 -118 17 -3 4 -8 44 -10 90 l-3 84 29 -6 c16 -3 35 -6 43
-6z m123 -509 c3 -3 30 -6 60 -5 62 0 171 -18 170 -29 0 -4 0 -14 0 -23 0 -13
-8 -15 -36 -12 -27 3 -38 0 -45 -14 -14 -26 -53 -6 -44 23 4 13 1 21 -10 25
-21 9 -37 -8 -37 -39 0 -19 -6 -24 -24 -24 -14 0 -24 5 -24 13 0 18 -4 18 -38
-3 -16 -10 -27 -24 -24 -31 3 -11 0 -12 -16 -3 -12 6 -24 16 -27 21 -10 17
-25 11 -25 -10 0 -11 -4 -20 -10 -20 -5 0 -10 12 -10 26 0 15 -6 32 -14 38 -8
6 -17 28 -20 48 l-7 38 88 -7 c48 -3 90 -8 93 -12z m226 -276 c-7 -27 19 -95
35 -95 14 0 10 -30 -8 -61 -16 -27 -16 -29 0 -42 10 -7 18 -24 19 -37 1 -14 8
-33 16 -42 16 -19 7 -42 -11 -31 -7 3 -4 -3 7 -15 10 -12 27 -24 38 -28 28 -8
92 -72 71 -70 -9 0 -18 -5 -20 -11 -3 -8 5 -13 20 -13 20 0 24 -4 20 -20 -3
-11 -14 -20 -24 -20 -11 0 -19 -3 -19 -7 0 -12 20 -40 20 -29 0 5 9 -3 21 -18
11 -14 27 -26 35 -26 8 0 12 -4 9 -10 -11 -19 -53 -11 -60 11 -4 11 -9 18 -12
16 -9 -9 17 -47 32 -47 8 0 15 -6 15 -14 0 -8 7 -16 15 -20 8 -3 15 -10 15
-16 0 -18 -29 -11 -42 10 -17 27 -28 25 -28 -6 0 -20 4 -25 16 -20 10 4 14 1
12 -6 -3 -7 -26 -16 -53 -20 -26 -4 -52 -13 -56 -20 -7 -10 -9 -10 -9 0 0 6
-6 12 -13 12 -27 0 -34 20 -26 77 4 31 12 59 17 62 6 3 0 17 -12 32 -22 25
-23 26 -35 7 -6 -10 -16 -16 -22 -12 -8 4 -9 -4 -4 -27 6 -28 5 -32 -6 -21
-19 17 -29 15 -29 -7 0 -16 -7 -19 -47 -19 -29 1 -58 8 -73 19 -30 22 -164 37
-174 20 -14 -22 -24 -10 -28 34 -4 50 -10 48 67 29 18 -4 27 -1 31 10 4 11 19
16 46 16 22 0 46 7 54 15 14 13 13 15 -5 15 -12 0 -21 2 -21 4 0 2 -3 12 -6
21 -5 13 -2 15 20 9 16 -4 26 -2 26 5 0 6 -5 11 -11 11 -5 0 -7 5 -4 11 9 13
-35 51 -54 47 -11 -3 -15 -13 -13 -31 3 -31 -3 -34 -25 -12 -8 8 -19 13 -24
10 -18 -12 -8 11 11 25 28 20 25 40 -7 40 -21 0 -24 3 -15 12 8 8 9 15 1 25
-7 8 -7 13 -2 13 15 0 3 53 -14 63 -21 13 -5 27 32 27 18 0 35 4 37 10 2 6 14
4 30 -4 16 -9 30 -11 33 -5 4 5 17 9 30 9 12 0 25 7 29 15 3 8 10 15 16 15 6
0 8 -4 5 -10 -4 -7 3 -7 20 0 33 13 31 13 49 -6 10 -9 16 -11 16 -4 0 7 8 9
19 5 12 -3 21 0 25 10 3 9 0 15 -10 15 -11 0 -14 6 -10 16 3 9 -3 29 -15 46
-19 26 -20 33 -9 54 17 32 34 31 26 -1z m5722 -494 c-2 -10 4 -27 13 -37 9
-11 20 -40 23 -65 5 -37 3 -50 -12 -70 -17 -20 -22 -21 -36 -10 -9 7 -16 22
-16 33 0 10 -7 21 -15 25 -23 8 -46 69 -36 95 6 17 41 38 79 47 2 1 2 -8 0
-18z m-1764 -937 c9 -3 16 -12 16 -19 0 -16 33 -30 38 -16 6 18 55 12 87 -9
17 -11 44 -20 62 -20 17 0 34 -4 37 -9 3 -5 21 -12 40 -15 50 -10 56 -22 46
-94 -10 -76 -14 -82 -51 -82 -19 0 -29 -5 -29 -15 0 -17 -46 -21 -69 -6 -10 6
-26 5 -47 -4 -29 -12 -34 -11 -52 8 -19 19 -22 19 -28 4 -8 -23 -36 -22 -32 1
2 12 -3 16 -18 14 -12 -1 -26 3 -31 10 -16 20 -43 201 -32 214 5 6 7 19 3 28
-5 12 0 16 19 16 14 0 32 -3 41 -6z m-4143 -458 c-5 -6 -9 -22 -9 -36 1 -44
-17 -113 -30 -118 -7 -2 -12 5 -12 18 0 18 -4 21 -24 16 -16 -4 -26 -1 -30 9
-3 8 -14 15 -24 15 -11 0 -25 7 -32 15 -7 9 -19 14 -27 11 -19 -7 -16 9 4 25
9 8 14 9 11 4 -4 -6 5 -16 20 -22 36 -15 82 -22 82 -13 0 14 -27 30 -41 25
-17 -6 -46 11 -36 21 3 4 13 2 20 -5 11 -9 17 -8 27 4 7 8 9 15 5 15 -4 0 -2
7 5 15 7 8 21 15 31 15 11 0 16 5 13 13 -3 8 -24 13 -61 12 -36 0 -58 4 -60
13 -3 7 1 10 9 7 7 -2 29 -1 48 3 30 7 41 3 77 -22 28 -19 39 -33 34 -40z
m3807 -214 c9 -10 33 -48 52 -85 32 -62 34 -69 18 -78 -26 -15 -22 -34 11 -61
22 -17 31 -35 36 -70 8 -52 1 -58 -38 -36 -12 7 -34 11 -48 9 -31 -3 -62 24
-55 48 2 9 7 37 11 63 5 40 3 48 -16 61 -17 12 -20 21 -14 45 3 17 2 46 -3 64
-15 57 9 78 46 40z m68 -437 c21 -19 30 -22 40 -14 11 9 20 7 39 -5 30 -20 32
-33 4 -41 -14 -5 -17 -10 -10 -19 6 -7 7 -26 1 -51 -13 -55 -12 -65 5 -65 9 0
15 9 15 22 0 21 1 21 16 6 9 -9 16 -29 16 -45 0 -15 4 -35 9 -45 10 -18 42
-201 41 -233 0 -11 4 -42 9 -69 7 -36 6 -51 -2 -57 -21 -13 -56 12 -74 54 -18
40 -18 41 4 79 l22 38 -30 0 c-16 0 -32 4 -35 9 -4 5 -18 5 -35 -2 -44 -16
-58 -5 -58 46 -1 28 -9 56 -21 74 -11 15 -23 48 -26 72 -4 24 -14 50 -24 57
-13 10 -14 16 -6 24 18 19 49 7 47 -17 -2 -16 3 -20 22 -20 26 0 32 15 16 45
-5 9 -15 39 -22 65 -11 43 -14 48 -38 45 -23 -3 -26 1 -29 29 -3 26 1 32 20
36 47 9 58 6 84 -18z"/>
<path d="M6080 8493 c0 -26 28 -103 52 -140 11 -18 15 -33 10 -33 -6 0 -8 -24
-5 -62 7 -74 32 -118 69 -118 29 0 29 0 8 48 -22 49 -26 72 -15 86 14 17 5 78
-15 112 -53 85 -68 105 -85 115 -15 8 -19 6 -19 -8z"/>
<path d="M5700 7654 c0 -40 -18 -64 -48 -64 -37 0 -54 13 -46 36 3 11 2 14 -3
8 -11 -15 -54 -23 -150 -27 -59 -3 -88 -8 -101 -20 -23 -21 -72 -22 -98 -2
-10 8 -22 15 -25 15 -8 0 -32 -108 -34 -154 -1 -27 4 -42 17 -50 10 -6 18 -19
18 -29 0 -10 5 -27 10 -38 9 -16 18 -18 50 -13 27 5 40 3 40 -5 0 -6 11 -17
25 -23 30 -14 32 -34 5 -43 -11 -3 -20 -15 -20 -25 0 -25 64 -47 85 -30 8 7
15 8 15 4 0 -11 98 -11 123 0 35 16 13 46 -34 46 -13 0 -19 7 -19 23 0 13 -5
28 -12 35 -9 9 -3 12 30 12 24 0 58 7 77 15 38 15 226 12 272 -6 22 -8 24 -7
22 18 -4 38 -35 71 -73 79 -17 3 -57 15 -88 25 -32 10 -68 19 -82 19 -36 0
-41 18 -15 47 28 29 62 46 107 51 6 1 12 11 12 22 0 11 5 20 12 20 7 0 5 5 -5
13 -9 6 -21 24 -26 40 -13 35 -41 36 -41 1z"/>
<path d="M2370 6982 c0 -4 28 -20 62 -36 50 -24 64 -27 80 -17 20 12 42 6 33
-9 -12 -19 21 -51 58 -57 20 -3 37 -9 37 -14 0 -5 6 -9 13 -9 6 0 24 -11 39
-23 20 -18 24 -27 16 -35 -17 -17 19 -27 46 -13 12 7 26 11 32 10 71 -13 82
28 23 85 -33 30 -47 37 -68 33 -34 -7 -54 5 -45 26 4 12 -1 18 -20 23 -13 3
-30 3 -36 -1 -6 -4 -18 -1 -27 7 -9 7 -26 13 -37 14 -12 1 -39 5 -60 9 -27 5
-37 4 -32 -3 3 -6 1 -14 -5 -18 -7 -4 -9 -3 -5 4 3 6 1 14 -6 18 -16 10 -98
15 -98 6z"/>
<path d="M6891 5485 c-16 -24 -21 -42 -17 -59 5 -19 1 -26 -14 -31 -33 -10
-12 -26 26 -19 l34 6 0 -40 c0 -23 6 -44 13 -49 7 -5 -5 -10 -33 -14 l-45 -6
48 -1 c38 -2 56 4 82 24 29 22 32 28 22 45 -10 15 -7 23 16 47 24 25 26 33 18
55 -12 32 -31 35 -38 6 -4 -12 -11 -18 -20 -15 -8 3 -21 6 -29 6 -12 0 -12 4
-4 20 8 14 7 25 -2 40 -18 28 -29 25 -57 -15z"/>
<path d="M2526 4995 c-29 -27 -52 -75 -36 -75 6 0 10 -6 10 -14 0 -7 9 -20 20
-27 28 -19 17 -59 -16 -59 -15 0 -24 -6 -24 -16 0 -13 7 -15 38 -9 45 9 81 8
96 -4 6 -4 23 -11 39 -15 20 -5 27 -3 27 9 0 8 -4 15 -9 15 -5 0 -11 9 -14 19
-3 14 2 21 16 25 l21 5 -23 25 c-19 20 -21 27 -10 44 10 17 10 26 0 49 l-13
28 -15 -35 -16 -35 -10 33 c-10 33 -21 40 -32 22 -10 -17 -26 0 -20 21 8 25 3
24 -29 -6z"/>
</g>
</svg>
