<?xml version="1.0" standalone="no"?>
<!DOCTYPE svg PUBLIC "-//W3C//DTD SVG 20010904//EN"
 "http://www.w3.org/TR/2001/REC-SVG-20010904/DTD/svg10.dtd">
<svg version="1.0" xmlns="http://www.w3.org/2000/svg"
 width="171.000000pt" height="84.000000pt" viewBox="0 0 171.000000 84.000000"
 preserveAspectRatio="xMidYMid meet">
<metadata>
Created by potrace 1.15, written by Peter Selinger 2001-2017
</metadata>
<g transform="translate(0.000000,84.000000) scale(0.100000,-0.100000)"
fill="#000000" stroke="none">
<path d="M50 415 l0 -355 805 0 805 0 0 355 0 355 -805 0 -805 0 0 -355z m870
177 c35 -17 83 -77 77 -96 -2 -5 -18 -14 -36 -18 -28 -8 -35 -5 -66 28 -31 33
-39 36 -72 31 -22 -4 -47 -17 -59 -31 -40 -46 -40 -171 1 -216 41 -45 115 -32
142 25 15 32 20 35 48 29 16 -3 34 -10 38 -14 21 -19 -32 -99 -84 -125 -33
-18 -106 -20 -146 -4 -38 14 -83 57 -99 96 -21 49 -18 166 5 211 22 43 56 77
91 91 40 16 122 13 160 -7z m-500 -157 c0 -184 -7 -213 -60 -240 -16 -8 -52
-15 -81 -15 -45 0 -55 4 -85 34 -37 37 -47 89 -18 100 36 14 59 5 74 -27 11
-23 22 -32 40 -32 41 0 50 34 50 198 l0 147 40 0 40 0 0 -165z m1100 130 c0
-31 -16 -54 -111 -168 l-110 -132 115 -3 116 -3 0 -34 0 -35 -170 0 -170 0 0
38 c0 33 13 52 109 167 l109 130 -94 3 -94 3 0 34 0 35 150 0 150 0 0 -35z"/>
</g>
</svg>
